<?xml version="1.0" standalone="no"?>
<!DOCTYPE svg PUBLIC "-//W3C//DTD SVG 20010904//EN"
 "http://www.w3.org/TR/2001/REC-SVG-20010904/DTD/svg10.dtd">
<svg version="1.0" xmlns="http://www.w3.org/2000/svg"
 width="495.000000pt" height="187.000000pt" viewBox="0 0 495.000000 187.000000"
 preserveAspectRatio="xMidYMid meet">

<g transform="translate(0.000000,187.000000) scale(0.100000,-0.100000)"
fill="#000000" stroke="none">
<path d="M1330 1490 l0 -61 58 3 57 3 3 58 3 57 -61 0 -60 0 0 -60z"/>
<path d="M1890 1423 l0 -127 -27 26 c-42 39 -67 48 -130 48 -124 0 -203 -96
-203 -244 0 -76 24 -129 78 -178 80 -72 190 -75 264 -9 l32 28 15 -30 c17 -33
52 -48 95 -40 23 5 26 10 26 50 0 26 -6 51 -15 59 -13 13 -15 58 -15 280 l0
264 -60 0 -60 0 0 -127z m-60 -168 c48 -25 60 -52 60 -131 0 -68 -2 -74 -30
-98 -111 -93 -254 30 -196 168 28 68 101 95 166 61z"/>
<path d="M3280 1505 c0 -43 1 -45 30 -45 29 0 30 2 30 45 0 43 -1 45 -30 45
-29 0 -30 -2 -30 -45z"/>
<path d="M340 1523 c0 -5 56 -145 124 -313 l123 -305 54 0 53 0 50 122 c28 67
53 124 57 127 3 3 29 -53 58 -124 l53 -130 51 0 52 0 125 307 c69 169 127 311
128 315 2 5 -26 8 -63 6 l-68 -3 -86 -237 c-47 -131 -88 -238 -91 -238 -3 0
-22 44 -43 98 l-38 97 50 134 c28 73 51 137 51 142 0 5 -24 9 -54 9 l-55 0
-32 -100 c-18 -54 -35 -97 -39 -94 -3 3 -19 47 -36 97 l-31 92 -56 3 c-31 2
-57 2 -57 0 0 -2 23 -63 50 -137 28 -74 50 -139 50 -145 0 -6 -13 -45 -28 -86
-16 -41 -32 -84 -36 -95 -7 -19 -8 -19 -20 5 -7 14 -48 123 -92 243 l-78 217
-63 0 c-35 0 -63 -3 -63 -7z"/>
<path d="M2632 1517 c2 -8 59 -150 128 -316 165 -399 139 -400 311 13 71 170
129 311 129 313 0 3 -14 3 -32 1 -32 -3 -32 -3 -140 -268 -59 -146 -109 -269
-111 -275 -3 -5 -10 4 -16 20 -7 17 -57 141 -113 278 -99 244 -101 247 -130
247 -20 0 -28 -5 -26 -13z"/>
<path d="M1330 1135 l0 -235 60 0 60 0 -2 233 -3 232 -57 3 -58 3 0 -236z"/>
<path d="M2245 1356 c-185 -80 -192 -346 -12 -437 91 -47 214 -30 287 40 22
21 40 42 40 48 0 5 -21 15 -47 21 -45 10 -50 9 -75 -15 -55 -52 -159 -38 -193
27 -31 61 -33 60 165 60 l180 0 0 36 c0 89 -57 180 -134 215 -49 22 -166 25
-211 5z m163 -86 c27 -17 62 -70 62 -95 0 -3 -54 -5 -120 -5 -114 0 -120 1
-120 20 0 28 28 68 59 85 37 20 81 18 119 -5z"/>
<path d="M3573 1345 c-81 -41 -123 -114 -123 -216 0 -63 23 -122 64 -167 82
-91 262 -89 335 4 27 34 26 40 -1 48 -17 4 -28 -1 -42 -20 -64 -87 -225 -64
-275 39 -39 80 -46 77 173 77 121 0 197 4 201 10 4 6 1 35 -5 65 -32 153 -188
229 -327 160z m194 -46 c35 -22 67 -68 78 -111 l7 -28 -171 0 c-186 0 -182 -1
-160 57 25 67 106 117 174 108 21 -3 54 -15 72 -26z"/>
<path d="M3280 1130 l0 -230 30 0 30 0 0 230 0 230 -30 0 -30 0 0 -230z"/>
<path d="M3980 1293 c171 -397 166 -388 192 -391 23 -3 29 5 73 113 26 63 51
113 54 110 3 -3 26 -54 51 -113 39 -92 49 -107 71 -110 24 -3 30 9 117 210 50
117 94 221 98 231 5 14 1 17 -22 17 -28 0 -32 -6 -108 -191 -44 -104 -82 -192
-86 -194 -3 -2 -25 42 -49 99 l-42 102 36 83 c19 46 35 87 35 92 0 5 -10 9
-23 9 -18 0 -26 -11 -45 -65 -13 -36 -27 -67 -31 -70 -5 -2 -20 27 -35 65 -24
60 -31 70 -52 70 -13 0 -24 -1 -24 -3 0 -1 16 -40 35 -86 19 -45 35 -89 35
-98 0 -15 -68 -182 -80 -196 -4 -4 -43 79 -88 185 -78 187 -82 193 -111 196
l-31 3 30 -68z"/>
<path d="M437 443 c-31 -76 -57 -141 -57 -145 0 -5 6 -8 13 -8 7 0 20 19 28
43 l16 42 70 3 70 3 17 -46 c10 -25 24 -45 32 -45 8 0 14 2 14 4 0 20 -121
282 -132 284 -9 2 -32 -40 -71 -135z m99 42 c35 -81 34 -85 -31 -85 -30 0 -55
2 -55 5 0 10 52 135 57 135 2 0 15 -25 29 -55z"/>
<path d="M2190 546 c0 -23 -6 -36 -17 -41 -17 -6 -17 -7 0 -19 14 -11 17 -29
17 -93 0 -89 10 -107 56 -101 37 4 44 28 7 25 l-28 -2 -3 82 c-3 76 -1 82 18
85 27 4 27 22 0 26 -16 3 -20 11 -20 38 0 24 -5 34 -15 34 -10 0 -15 -10 -15
-34z"/>
<path d="M4070 546 c0 -23 -6 -36 -17 -41 -17 -6 -17 -7 0 -19 13 -11 17 -28
17 -88 0 -87 12 -111 55 -106 16 1 31 9 33 17 3 10 0 12 -12 8 -37 -14 -46 2
-46 83 0 73 2 79 22 82 32 5 35 28 4 28 -23 0 -26 4 -26 35 0 24 -5 35 -15 35
-10 0 -15 -10 -15 -34z"/>
<path d="M900 354 c0 -120 3 -155 13 -152 7 3 13 28 15 66 l3 62 21 -20 c25
-23 84 -26 110 -6 58 43 55 150 -5 186 -40 25 -64 25 -104 0 -33 -20 -33 -20
-33 0 0 11 -4 20 -10 20 -6 0 -10 -59 -10 -156z m137 116 c52 -32 54 -108 4
-147 -24 -18 -55 -15 -85 8 -22 17 -26 29 -26 68 0 48 14 71 50 84 23 8 23 8
57 -13z"/>
<path d="M1397 494 c-39 -21 -27 -29 18 -13 31 11 40 11 63 -2 16 -9 28 -25
30 -40 3 -24 1 -25 -51 -25 -40 1 -60 -4 -76 -18 -26 -23 -27 -67 -3 -89 23
-21 82 -22 108 -2 25 19 34 19 34 0 0 -8 6 -15 14 -15 10 0 12 16 9 73 -5 89
-17 121 -49 136 -33 15 -63 13 -97 -5z m97 -100 c23 -9 19 -50 -6 -68 -12 -9
-37 -16 -55 -16 -26 0 -36 6 -45 25 -9 21 -8 28 7 45 18 20 66 27 99 14z"/>
<path d="M1820 400 c0 -91 3 -110 15 -110 12 0 15 15 15 71 0 83 9 103 51 118
17 6 28 15 25 20 -8 12 -42 3 -57 -15 -16 -20 -29 -17 -29 6 0 11 -4 20 -10
20 -6 0 -10 -43 -10 -110z"/>
<path d="M2546 503 c-3 -3 -6 -53 -6 -110 0 -85 3 -103 15 -103 12 0 15 15 15
73 0 85 19 117 70 117 40 0 50 -23 50 -114 0 -58 3 -76 14 -76 10 0 14 18 14
76 1 88 16 114 67 114 41 0 47 -13 50 -110 4 -112 25 -104 25 9 0 78 -3 94
-20 111 -26 26 -63 25 -96 -3 l-27 -23 -23 23 c-29 29 -63 29 -98 2 -21 -16
-26 -17 -26 -5 0 17 -14 29 -24 19z"/>
<path d="M3194 501 c-34 -15 -64 -60 -64 -98 0 -41 23 -89 49 -103 32 -17 96
-12 122 9 30 24 19 39 -13 17 -48 -34 -128 -4 -128 47 0 15 12 17 91 17 l92 0
-7 33 c-12 62 -85 102 -142 78z m91 -36 c45 -44 35 -55 -54 -55 -75 0 -79 1
-74 20 7 28 50 60 80 60 13 0 35 -11 48 -25z"/>
<path d="M3607 503 c-4 -3 -7 -53 -7 -110 0 -85 3 -103 15 -103 12 0 15 14 15
69 0 85 22 121 76 121 43 0 54 -24 54 -121 0 -39 4 -69 10 -69 6 0 10 37 10
90 0 77 -3 93 -20 110 -11 11 -29 20 -40 20 -26 0 -77 -26 -83 -42 -3 -7 -6
-1 -6 15 -1 26 -10 34 -24 20z"/>
<path d="M4435 485 c-43 -42 -31 -67 45 -93 61 -21 81 -42 61 -66 -15 -18 -73
-21 -103 -5 -27 15 -38 1 -13 -17 13 -10 38 -14 69 -12 40 2 53 8 69 30 18 24
19 29 6 49 -9 13 -38 29 -69 38 -58 17 -73 39 -49 67 13 16 55 15 92 -1 10 -4
17 -3 17 4 0 14 -42 31 -76 31 -14 0 -36 -11 -49 -25z"/>
</g>
</svg>
